<?xml version="1.0" encoding="UTF-8" standalone="no"?>
<!DOCTYPE svg PUBLIC "-//W3C//DTD SVG 1.1//EN"
 "http://www.w3.org/Graphics/SVG/1.1/DTD/svg11.dtd">
<!-- Generated by graphviz version 2.43.0 (0)
 -->
<!-- Title: models_diagram Pages: 1 -->
<svg width="1761pt" height="597pt"
 viewBox="0.00 0.00 1761.00 597.00" xmlns="http://www.w3.org/2000/svg" xmlns:xlink="http://www.w3.org/1999/xlink">
<g id="graph0" class="graph" transform="scale(1 1) rotate(0) translate(4 593)">
<title>models_diagram</title>
<polygon fill="transparent" stroke="transparent" points="-4,4 -4,-593 1757,-593 1757,4 -4,4"/>
<!-- Admin -->
<g id="node1" class="node">
<title>Admin</title>
<path fill="none" stroke="black" d="M12,-422.5C12,-422.5 413,-422.5 413,-422.5 419,-422.5 425,-428.5 425,-434.5 425,-434.5 425,-576.5 425,-576.5 425,-582.5 419,-588.5 413,-588.5 413,-588.5 12,-588.5 12,-588.5 6,-588.5 0,-582.5 0,-576.5 0,-576.5 0,-434.5 0,-434.5 0,-428.5 6,-422.5 12,-422.5"/>
<text text-anchor="middle" x="212.5" y="-573.3" font-family="Times,serif" font-size="14.00">Admin</text>
<polyline fill="none" stroke="black" points="0,-565.5 425,-565.5 "/>
<text text-anchor="start" x="8" y="-550.3" font-family="Times,serif" font-size="14.00">id :uuid</text>
<text text-anchor="start" x="8" y="-535.3" font-family="Times,serif" font-size="14.00">email :character varying</text>
<text text-anchor="start" x="8" y="-520.3" font-family="Times,serif" font-size="14.00">encrypted_password :character varying</text>
<text text-anchor="start" x="8" y="-505.3" font-family="Times,serif" font-size="14.00">reset_password_token :character varying</text>
<text text-anchor="start" x="8" y="-490.3" font-family="Times,serif" font-size="14.00">reset_password_sent_at :timestamp(6) without time zone</text>
<text text-anchor="start" x="8" y="-475.3" font-family="Times,serif" font-size="14.00">remember_created_at :timestamp(6) without time zone</text>
<text text-anchor="start" x="8" y="-460.3" font-family="Times,serif" font-size="14.00">created_at :timestamp(6) without time zone</text>
<text text-anchor="start" x="8" y="-445.3" font-family="Times,serif" font-size="14.00">updated_at :timestamp(6) without time zone</text>
<text text-anchor="start" x="8" y="-430.3" font-family="Times,serif" font-size="14.00">name :character varying</text>
</g>
<!-- ApplicationRecord -->
<g id="node2" class="node">
<title>ApplicationRecord</title>
<ellipse fill="none" stroke="black" cx="538.5" cy="-505.5" rx="95.58" ry="18"/>
<text text-anchor="middle" x="538.5" y="-501.8" font-family="Times,serif" font-size="14.00">ApplicationRecord</text>
</g>
<!-- Article -->
<g id="node3" class="node">
<title>Article</title>
<path fill="none" stroke="black" d="M664,-430C664,-430 975,-430 975,-430 981,-430 987,-436 987,-442 987,-442 987,-569 987,-569 987,-575 981,-581 975,-581 975,-581 664,-581 664,-581 658,-581 652,-575 652,-569 652,-569 652,-442 652,-442 652,-436 658,-430 664,-430"/>
<text text-anchor="middle" x="819.5" y="-565.8" font-family="Times,serif" font-size="14.00">Article</text>
<polyline fill="none" stroke="black" points="652,-558 987,-558 "/>
<text text-anchor="start" x="660" y="-542.8" font-family="Times,serif" font-size="14.00">id :uuid</text>
<text text-anchor="start" x="660" y="-527.8" font-family="Times,serif" font-size="14.00">title :character varying</text>
<text text-anchor="start" x="660" y="-512.8" font-family="Times,serif" font-size="14.00">body :text</text>
<text text-anchor="start" x="660" y="-497.8" font-family="Times,serif" font-size="14.00">created_at :timestamp(6) without time zone</text>
<text text-anchor="start" x="660" y="-482.8" font-family="Times,serif" font-size="14.00">updated_at :timestamp(6) without time zone</text>
<text text-anchor="start" x="660" y="-467.8" font-family="Times,serif" font-size="14.00">slug :character varying</text>
<text text-anchor="start" x="660" y="-452.8" font-family="Times,serif" font-size="14.00">category_id :uuid</text>
<text text-anchor="start" x="660" y="-437.8" font-family="Times,serif" font-size="14.00">author_id :uuid</text>
</g>
<!-- Author -->
<g id="node4" class="node">
<title>Author</title>
<path fill="none" stroke="black" d="M311,-203.5C311,-203.5 622,-203.5 622,-203.5 628,-203.5 634,-209.5 634,-215.5 634,-215.5 634,-372.5 634,-372.5 634,-378.5 628,-384.5 622,-384.5 622,-384.5 311,-384.5 311,-384.5 305,-384.5 299,-378.5 299,-372.5 299,-372.5 299,-215.5 299,-215.5 299,-209.5 305,-203.5 311,-203.5"/>
<text text-anchor="middle" x="466.5" y="-369.3" font-family="Times,serif" font-size="14.00">Author</text>
<polyline fill="none" stroke="black" points="299,-361.5 634,-361.5 "/>
<text text-anchor="start" x="307" y="-346.3" font-family="Times,serif" font-size="14.00">id :uuid</text>
<text text-anchor="start" x="307" y="-331.3" font-family="Times,serif" font-size="14.00">name :character varying</text>
<text text-anchor="start" x="307" y="-316.3" font-family="Times,serif" font-size="14.00">description :text</text>
<text text-anchor="start" x="307" y="-301.3" font-family="Times,serif" font-size="14.00">facebook_profile_url :character varying</text>
<text text-anchor="start" x="307" y="-286.3" font-family="Times,serif" font-size="14.00">instagram_profile_url :character varying</text>
<text text-anchor="start" x="307" y="-271.3" font-family="Times,serif" font-size="14.00">twitter_profile_url :character varying</text>
<text text-anchor="start" x="307" y="-256.3" font-family="Times,serif" font-size="14.00">linkedin_profile_url :character varying</text>
<text text-anchor="start" x="307" y="-241.3" font-family="Times,serif" font-size="14.00">youtube_profile_url :character varying</text>
<text text-anchor="start" x="307" y="-226.3" font-family="Times,serif" font-size="14.00">created_at :timestamp(6) without time zone</text>
<text text-anchor="start" x="307" y="-211.3" font-family="Times,serif" font-size="14.00">updated_at :timestamp(6) without time zone</text>
</g>
<!-- Article&#45;&gt;Author -->
<g id="edge2" class="edge">
<title>Article&#45;&gt;Author</title>
<path fill="none" stroke="#4856b7" d="M684.83,-424.58C665.64,-413.19 645.75,-401.38 626.13,-389.74"/>
<polygon fill="#4856b7" stroke="#4856b7" points="684.95,-424.65 691.26,-433.62 689.25,-427.2 693.55,-429.75 693.55,-429.75 693.55,-429.75 689.25,-427.2 695.85,-425.88 684.95,-424.65 684.95,-424.65"/>
<polygon fill="#4856b7" stroke="#4856b7" points="626.05,-389.69 619.74,-380.71 621.75,-387.14 617.45,-384.58 617.45,-384.58 617.45,-384.58 621.75,-387.14 615.15,-388.45 626.05,-389.69 626.05,-389.69"/>
</g>
<!-- Category -->
<g id="node5" class="node">
<title>Category</title>
<path fill="none" stroke="black" d="M664,-241C664,-241 975,-241 975,-241 981,-241 987,-247 987,-253 987,-253 987,-335 987,-335 987,-341 981,-347 975,-347 975,-347 664,-347 664,-347 658,-347 652,-341 652,-335 652,-335 652,-253 652,-253 652,-247 658,-241 664,-241"/>
<text text-anchor="middle" x="819.5" y="-331.8" font-family="Times,serif" font-size="14.00">Category</text>
<polyline fill="none" stroke="black" points="652,-324 987,-324 "/>
<text text-anchor="start" x="660" y="-308.8" font-family="Times,serif" font-size="14.00">id :uuid</text>
<text text-anchor="start" x="660" y="-293.8" font-family="Times,serif" font-size="14.00">name :character varying</text>
<text text-anchor="start" x="660" y="-278.8" font-family="Times,serif" font-size="14.00">created_at :timestamp(6) without time zone</text>
<text text-anchor="start" x="660" y="-263.8" font-family="Times,serif" font-size="14.00">updated_at :timestamp(6) without time zone</text>
<text text-anchor="start" x="660" y="-248.8" font-family="Times,serif" font-size="14.00">description :text</text>
</g>
<!-- Article&#45;&gt;Category -->
<g id="edge1" class="edge">
<title>Article&#45;&gt;Category</title>
<path fill="none" stroke="#bec095" d="M819.5,-419.69C819.5,-398.75 819.5,-376.7 819.5,-357.07"/>
<polygon fill="#bec095" stroke="#bec095" points="819.5,-419.75 815,-429.75 819.5,-424.75 819.5,-429.75 819.5,-429.75 819.5,-429.75 819.5,-424.75 824,-429.75 819.5,-419.75 819.5,-419.75"/>
<polygon fill="#bec095" stroke="#bec095" points="819.5,-357.04 824,-347.04 819.5,-352.04 819.5,-347.04 819.5,-347.04 819.5,-347.04 819.5,-352.04 815,-347.04 819.5,-357.04 819.5,-357.04"/>
</g>
<!-- Comment -->
<g id="node6" class="node">
<title>Comment</title>
<path fill="none" stroke="black" d="M1245,-218.5C1245,-218.5 1556,-218.5 1556,-218.5 1562,-218.5 1568,-224.5 1568,-230.5 1568,-230.5 1568,-357.5 1568,-357.5 1568,-363.5 1562,-369.5 1556,-369.5 1556,-369.5 1245,-369.5 1245,-369.5 1239,-369.5 1233,-363.5 1233,-357.5 1233,-357.5 1233,-230.5 1233,-230.5 1233,-224.5 1239,-218.5 1245,-218.5"/>
<text text-anchor="middle" x="1400.5" y="-354.3" font-family="Times,serif" font-size="14.00">Comment</text>
<polyline fill="none" stroke="black" points="1233,-346.5 1568,-346.5 "/>
<text text-anchor="start" x="1241" y="-331.3" font-family="Times,serif" font-size="14.00">id :uuid</text>
<text text-anchor="start" x="1241" y="-316.3" font-family="Times,serif" font-size="14.00">user_id :uuid</text>
<text text-anchor="start" x="1241" y="-301.3" font-family="Times,serif" font-size="14.00">article_id :uuid</text>
<text text-anchor="start" x="1241" y="-286.3" font-family="Times,serif" font-size="14.00">body :text</text>
<text text-anchor="start" x="1241" y="-271.3" font-family="Times,serif" font-size="14.00">created_at :timestamp(6) without time zone</text>
<text text-anchor="start" x="1241" y="-256.3" font-family="Times,serif" font-size="14.00">updated_at :timestamp(6) without time zone</text>
<text text-anchor="start" x="1241" y="-241.3" font-family="Times,serif" font-size="14.00">like :integer</text>
<text text-anchor="start" x="1241" y="-226.3" font-family="Times,serif" font-size="14.00">dislike :integer</text>
</g>
<!-- Article&#45;&gt;Comment -->
<g id="edge3" class="edge">
<title>Article&#45;&gt;Comment</title>
<path fill="none" stroke="#8a9bce" d="M996.92,-458.29C1066.86,-438.29 1147.33,-413.02 1218.5,-385 1227.54,-381.44 1236.74,-377.6 1245.97,-373.59"/>
<polygon fill="#8a9bce" stroke="#8a9bce" points="996.74,-458.35 985.89,-456.75 991.93,-459.71 987.12,-461.08 987.12,-461.08 987.12,-461.08 991.93,-459.71 988.35,-465.41 996.74,-458.35 996.74,-458.35"/>
<polygon fill="#8a9bce" stroke="#8a9bce" points="1246.05,-373.56 1257.01,-373.64 1250.62,-371.54 1255.2,-369.52 1255.2,-369.52 1255.2,-369.52 1250.62,-371.54 1253.38,-365.41 1246.05,-373.56 1246.05,-373.56"/>
</g>
<!-- ActiveStorage::Attachment -->
<g id="node9" class="node">
<title>ActiveStorage::Attachment</title>
<ellipse fill="none" stroke="black" cx="819.5" cy="-76" rx="135.68" ry="18"/>
<text text-anchor="middle" x="819.5" y="-72.3" font-family="Times,serif" font-size="14.00">ActiveStorage::Attachment</text>
</g>
<!-- Article&#45;&gt;ActiveStorage::Attachment -->
<g id="edge4" class="edge">
<title>Article&#45;&gt;ActiveStorage::Attachment</title>
<path fill="none" stroke="#05dc54" d="M964.18,-422.72C976.19,-411.35 986.97,-398.78 995.5,-385 1020.84,-344.06 1048.51,-210.52 1022.5,-170 996.71,-129.81 948.73,-106.77 905.9,-93.67"/>
<polygon fill="#05dc54" stroke="#05dc54" points="963.96,-422.92 953.53,-426.31 960.26,-426.28 956.56,-429.64 956.56,-429.64 956.56,-429.64 960.26,-426.28 959.58,-432.97 963.96,-422.92 963.96,-422.92"/>
<polygon fill="#05dc54" stroke="#05dc54" points="905.88,-93.67 897.54,-86.55 901.08,-92.27 896.28,-90.87 896.28,-90.87 896.28,-90.87 901.08,-92.27 895.02,-95.19 905.88,-93.67 905.88,-93.67"/>
<text text-anchor="middle" x="1122.5" y="-290.3" font-family="Times,serif" font-size="14.00">cover_image_attachment</text>
</g>
<!-- ActiveStorage::Blob -->
<g id="node10" class="node">
<title>ActiveStorage::Blob</title>
<ellipse fill="none" stroke="black" cx="280.5" cy="-76" rx="102.88" ry="18"/>
<text text-anchor="middle" x="280.5" y="-72.3" font-family="Times,serif" font-size="14.00">ActiveStorage::Blob</text>
</g>
<!-- Article&#45;&gt;ActiveStorage::Blob -->
<g id="edge5" class="edge">
<title>Article&#45;&gt;ActiveStorage::Blob</title>
<path fill="none" stroke="#612767" d="M659.8,-426.73C654.35,-425.01 648.9,-423.42 643.5,-422 591.67,-408.35 198.92,-424.33 162.5,-385 107.54,-325.65 132.77,-278.23 162.5,-203 179.64,-159.62 219.55,-122.42 248.22,-99.91"/>
<polygon fill="#612767" stroke="#612767" points="660.12,-426.83 668.21,-434.24 664.87,-428.4 669.62,-429.96 669.62,-429.96 669.62,-429.96 664.87,-428.4 671.03,-425.69 660.12,-426.83 660.12,-426.83"/>
<polygon fill="#612767" stroke="#612767" points="248.4,-99.77 259.08,-97.26 252.37,-96.73 256.34,-93.68 256.34,-93.68 256.34,-93.68 252.37,-96.73 253.6,-90.11 248.4,-99.77 248.4,-99.77"/>
<text text-anchor="middle" x="226" y="-290.3" font-family="Times,serif" font-size="14.00">cover_image_blob</text>
</g>
<!-- Author&#45;&gt;ActiveStorage::Attachment -->
<g id="edge6" class="edge">
<title>Author&#45;&gt;ActiveStorage::Attachment</title>
<path fill="none" stroke="#2519a3" d="M428.69,-193.38C429.91,-185 432.96,-177.06 438.5,-170 471.43,-128.06 606.68,-102.63 706.72,-89.2"/>
<polygon fill="#2519a3" stroke="#2519a3" points="428.69,-193.4 423.58,-203.1 428.38,-198.39 428.07,-203.38 428.07,-203.38 428.07,-203.38 428.38,-198.39 432.56,-203.66 428.69,-193.4 428.69,-193.4"/>
<polygon fill="#2519a3" stroke="#2519a3" points="706.98,-89.17 717.48,-92.33 711.94,-88.52 716.89,-87.86 716.89,-87.86 716.89,-87.86 711.94,-88.52 716.31,-83.4 706.98,-89.17 706.98,-89.17"/>
<text text-anchor="middle" x="531" y="-173.8" font-family="Times,serif" font-size="14.00">avatar_image_attachment</text>
</g>
<!-- Author&#45;&gt;ActiveStorage::Blob -->
<g id="edge7" class="edge">
<title>Author&#45;&gt;ActiveStorage::Blob</title>
<path fill="none" stroke="#9508ae" d="M292.41,-201.01C288.41,-195.93 284.75,-190.59 281.5,-185 267.22,-160.39 269.52,-127 273.76,-103.9"/>
<polygon fill="#9508ae" stroke="#9508ae" points="292.52,-201.14 295.52,-211.69 295.74,-204.96 298.96,-208.78 298.96,-208.78 298.96,-208.78 295.74,-204.96 302.4,-205.88 292.52,-201.14 292.52,-201.14"/>
<polygon fill="#9508ae" stroke="#9508ae" points="273.76,-103.86 280.2,-94.98 274.78,-98.97 275.79,-94.07 275.79,-94.07 275.79,-94.07 274.78,-98.97 271.38,-93.16 273.76,-103.86 273.76,-103.86"/>
<text text-anchor="middle" x="348.5" y="-173.8" font-family="Times,serif" font-size="14.00">avatar_image_blob</text>
</g>
<!-- Category&#45;&gt;ActiveStorage::Attachment -->
<g id="edge8" class="edge">
<title>Category&#45;&gt;ActiveStorage::Attachment</title>
<path fill="none" stroke="#cb5192" d="M819.5,-230.94C819.5,-189.13 819.5,-136.02 819.5,-104.37"/>
<polygon fill="#cb5192" stroke="#cb5192" points="819.5,-230.99 815,-240.99 819.5,-235.99 819.5,-240.99 819.5,-240.99 819.5,-240.99 819.5,-235.99 824,-240.99 819.5,-230.99 819.5,-230.99"/>
<polygon fill="#cb5192" stroke="#cb5192" points="819.5,-104.12 824,-94.12 819.5,-99.12 819.5,-94.12 819.5,-94.12 819.5,-94.12 819.5,-99.12 815,-94.12 819.5,-104.12 819.5,-104.12"/>
<text text-anchor="middle" x="920.5" y="-173.8" font-family="Times,serif" font-size="14.00">category_image_attachment</text>
</g>
<!-- Category&#45;&gt;ActiveStorage::Blob -->
<g id="edge9" class="edge">
<title>Category&#45;&gt;ActiveStorage::Blob</title>
<path fill="none" stroke="#463be7" d="M739.31,-235.14C704.93,-212.36 663.53,-187.52 623.5,-170 536.63,-131.98 430.44,-106.09 359.44,-91.47"/>
<polygon fill="#463be7" stroke="#463be7" points="739.58,-235.32 745.4,-244.62 743.74,-238.1 747.9,-240.88 747.9,-240.88 747.9,-240.88 743.74,-238.1 750.4,-237.14 739.58,-235.32 739.58,-235.32"/>
<polygon fill="#463be7" stroke="#463be7" points="359.02,-91.38 350.12,-84.98 354.12,-90.39 349.22,-89.39 349.22,-89.39 349.22,-89.39 354.12,-90.39 348.33,-93.8 359.02,-91.38 359.02,-91.38"/>
<text text-anchor="middle" x="728" y="-173.8" font-family="Times,serif" font-size="14.00">category_image_blob</text>
</g>
<!-- User -->
<g id="node8" class="node">
<title>User</title>
<path fill="none" stroke="black" d="M1340,-0.5C1340,-0.5 1741,-0.5 1741,-0.5 1747,-0.5 1753,-6.5 1753,-12.5 1753,-12.5 1753,-139.5 1753,-139.5 1753,-145.5 1747,-151.5 1741,-151.5 1741,-151.5 1340,-151.5 1340,-151.5 1334,-151.5 1328,-145.5 1328,-139.5 1328,-139.5 1328,-12.5 1328,-12.5 1328,-6.5 1334,-0.5 1340,-0.5"/>
<text text-anchor="middle" x="1540.5" y="-136.3" font-family="Times,serif" font-size="14.00">User</text>
<polyline fill="none" stroke="black" points="1328,-128.5 1753,-128.5 "/>
<text text-anchor="start" x="1336" y="-113.3" font-family="Times,serif" font-size="14.00">id :uuid</text>
<text text-anchor="start" x="1336" y="-98.3" font-family="Times,serif" font-size="14.00">email :character varying</text>
<text text-anchor="start" x="1336" y="-83.3" font-family="Times,serif" font-size="14.00">encrypted_password :character varying</text>
<text text-anchor="start" x="1336" y="-68.3" font-family="Times,serif" font-size="14.00">reset_password_token :character varying</text>
<text text-anchor="start" x="1336" y="-53.3" font-family="Times,serif" font-size="14.00">reset_password_sent_at :timestamp(6) without time zone</text>
<text text-anchor="start" x="1336" y="-38.3" font-family="Times,serif" font-size="14.00">remember_created_at :timestamp(6) without time zone</text>
<text text-anchor="start" x="1336" y="-23.3" font-family="Times,serif" font-size="14.00">created_at :timestamp(6) without time zone</text>
<text text-anchor="start" x="1336" y="-8.3" font-family="Times,serif" font-size="14.00">updated_at :timestamp(6) without time zone</text>
</g>
<!-- Comment&#45;&gt;User -->
<g id="edge10" class="edge">
<title>Comment&#45;&gt;User</title>
<path fill="none" stroke="#202afe" d="M1454.34,-209.93C1464.93,-193.59 1476.05,-176.44 1486.64,-160.1"/>
<polygon fill="#202afe" stroke="#202afe" points="1454.32,-209.97 1445.1,-215.92 1451.6,-214.17 1448.88,-218.36 1448.88,-218.36 1448.88,-218.36 1451.6,-214.17 1452.65,-220.81 1454.32,-209.97 1454.32,-209.97"/>
<polygon fill="#202afe" stroke="#202afe" points="1486.68,-160.03 1495.9,-154.09 1489.4,-155.84 1492.12,-151.64 1492.12,-151.64 1492.12,-151.64 1489.4,-155.84 1488.35,-149.19 1486.68,-160.03 1486.68,-160.03"/>
</g>
<!-- CommentLikeDislike -->
<g id="node7" class="node">
<title>CommentLikeDislike</title>
<path fill="none" stroke="black" d="M1386,-452.5C1386,-452.5 1697,-452.5 1697,-452.5 1703,-452.5 1709,-458.5 1709,-464.5 1709,-464.5 1709,-546.5 1709,-546.5 1709,-552.5 1703,-558.5 1697,-558.5 1697,-558.5 1386,-558.5 1386,-558.5 1380,-558.5 1374,-552.5 1374,-546.5 1374,-546.5 1374,-464.5 1374,-464.5 1374,-458.5 1380,-452.5 1386,-452.5"/>
<text text-anchor="middle" x="1541.5" y="-543.3" font-family="Times,serif" font-size="14.00">CommentLikeDislike</text>
<polyline fill="none" stroke="black" points="1374,-535.5 1709,-535.5 "/>
<text text-anchor="start" x="1382" y="-520.3" font-family="Times,serif" font-size="14.00">id :uuid</text>
<text text-anchor="start" x="1382" y="-505.3" font-family="Times,serif" font-size="14.00">comment_id :uuid</text>
<text text-anchor="start" x="1382" y="-490.3" font-family="Times,serif" font-size="14.00">user_id :uuid</text>
<text text-anchor="start" x="1382" y="-475.3" font-family="Times,serif" font-size="14.00">created_at :timestamp(6) without time zone</text>
<text text-anchor="start" x="1382" y="-460.3" font-family="Times,serif" font-size="14.00">updated_at :timestamp(6) without time zone</text>
</g>
<!-- CommentLikeDislike&#45;&gt;Comment -->
<g id="edge11" class="edge">
<title>CommentLikeDislike&#45;&gt;Comment</title>
<path fill="none" stroke="#5be376" d="M1500.83,-444.07C1486.99,-423.5 1471.26,-400.14 1456.44,-378.11"/>
<polygon fill="#5be376" stroke="#5be376" points="1500.88,-444.15 1502.73,-454.96 1503.67,-448.3 1506.46,-452.44 1506.46,-452.44 1506.46,-452.44 1503.67,-448.3 1510.2,-449.93 1500.88,-444.15 1500.88,-444.15"/>
<polygon fill="#5be376" stroke="#5be376" points="1456.39,-378.04 1454.54,-367.23 1453.59,-373.89 1450.8,-369.74 1450.8,-369.74 1450.8,-369.74 1453.59,-373.89 1447.07,-372.25 1456.39,-378.04 1456.39,-378.04"/>
</g>
<!-- CommentLikeDislike&#45;&gt;User -->
<g id="edge12" class="edge">
<title>CommentLikeDislike&#45;&gt;User</title>
<path fill="none" stroke="#03e3d9" d="M1563.88,-442.65C1569.48,-424.34 1574.69,-404.08 1577.5,-385 1589.29,-304.98 1589.01,-283.07 1577.5,-203 1575.54,-189.38 1572.45,-175.18 1568.87,-161.43"/>
<polygon fill="#03e3d9" stroke="#03e3d9" points="1563.84,-442.77 1556.55,-450.96 1562.34,-447.54 1560.84,-452.31 1560.84,-452.31 1560.84,-452.31 1562.34,-447.54 1565.13,-453.66 1563.84,-442.77 1563.84,-442.77"/>
<polygon fill="#03e3d9" stroke="#03e3d9" points="1568.8,-161.16 1570.53,-150.33 1567.49,-156.34 1566.18,-151.51 1566.18,-151.51 1566.18,-151.51 1567.49,-156.34 1561.84,-152.69 1568.8,-161.16 1568.8,-161.16"/>
</g>
</g>
</svg>
